<svg width="220" height="80" xmlns="http://www.w3.org/2000/svg" fill="none" class="svg">
 <path clip-rule="evenodd" fill-rule="evenodd" fill="#FC0000" d="m123.275,54.601c-6.957,0 -12.15,-5.194 -12.15,-11.661l0,-0.098c0,-6.467 5.193,-11.758 12.248,-11.758c6.957,0 12.15,5.193 12.15,11.66l0,0.098c0,6.467 -5.291,11.759 -12.248,11.759zm0,-5.488c3.626,0 5.879,-2.841 5.879,-6.173l0,-0.098c0,-3.331 -2.449,-6.271 -5.977,-6.271c-3.625,0 -5.879,2.842 -5.879,6.173l0,0.098c0.098,3.332 2.45,6.271 5.977,6.271z"/>
 <path clip-rule="evenodd" fill-rule="evenodd" fill="#000000" d="m20,59.499l18.617,-38.998l5.39,0l-18.618,38.998l-5.389,0z"/>
 <path clip-rule="evenodd" fill-rule="evenodd" fill="#000000" d="m48.808,44.998c0.588,2.939 2.646,4.409 5.487,4.409c2.156,0 3.724,-0.686 5.487,-2.352l3.626,3.234c-2.058,2.743 -5.095,4.311 -9.211,4.311c-6.761,0 -11.758,-4.801 -11.758,-11.66l0,-0.098c0,-6.467 4.605,-11.759 11.17,-11.759c7.545,0 10.975,5.88 10.975,12.249c0,0.49 0,1.078 -0.098,1.666l-15.678,0m-0.098,-3.92l9.603,0c-0.392,-2.842 -2.058,-4.801 -4.802,-4.801c-2.547,0 -4.311,1.861 -4.801,4.801z"/>
 <path clip-rule="evenodd" fill-rule="evenodd" fill="#000000" d="m75.656,54.306l5.781,0l8.917,-22.733l-6.663,0l-5.095,15.09l-5.096,-15.09l-6.761,0l8.917,22.733z"/>
 <path clip-rule="evenodd" fill-rule="evenodd" fill="#000000" d="m101.034,54.11l0,-8.329c0,-5.389 2.646,-7.936 6.859,-7.936l0.294,0l0,-6.664c-3.821,-0.196 -5.879,1.862 -7.251,4.998l0,-4.508l-6.369,0l0,22.439l6.467,0z"/>
 <path clip-rule="evenodd" fill-rule="evenodd" fill="#000000" d="m140.621,54.11l6.369,0l0,-12.64c0,-3.038 1.567,-4.605 4.017,-4.605c2.45,0 3.92,1.567 3.92,4.605l0,12.64l6.369,0l0,-14.6c0,-5.193 -2.842,-8.427 -7.643,-8.427c-3.234,0 -5.096,1.764 -6.663,3.626l0,-3.234l-6.369,0l0,22.635z"/>
 <path clip-rule="evenodd" fill-rule="evenodd" fill="#000000" d="m172.76,44.998c0.588,2.939 2.646,4.409 5.487,4.409c2.156,0 3.724,-0.686 5.487,-2.352l3.626,3.234c-2.156,2.743 -5.193,4.311 -9.211,4.311c-6.761,0 -11.758,-4.801 -11.758,-11.66l0,-0.098c0,-6.467 4.605,-11.759 11.17,-11.759c7.545,0 10.975,5.88 10.975,12.249c0,0.49 0,1.078 -0.098,1.666l-15.678,0m-0.196,-3.92l9.603,0c-0.392,-2.842 -2.058,-4.801 -4.802,-4.801c-2.547,0 -4.213,1.861 -4.801,4.801z"/>
 <path clip-rule="evenodd" fill-rule="evenodd" fill="#000000" d="m193.141,54.11l6.859,0l0,-6.761l-6.859,0l0,6.761z"/>
</svg>
